<svg xmlns="http://www.w3.org/2000/svg" width="48.502" height="50.076" viewBox="0 0 48.502 50.076">
  <g id="XMLID_1937_" transform="translate(-0.001)">
    <g id="XMLID_373_" transform="translate(0.001)">
      <path id="XMLID_551_" d="M307.624,26.407a3.074,3.074,0,0,0,2.98-3.822l-2.526-10.036a5.209,5.209,0,0,0-4.458-3.907,4.767,4.767,0,0,0,.958-2.872V4.792a4.792,4.792,0,1,0-9.585,0V5.77a4.767,4.767,0,0,0,.958,2.872,5.208,5.208,0,0,0-4.458,3.907l-2.526,10.036a3.074,3.074,0,0,0,2.979,3.822h0a3.083,3.083,0,0,0,.382-.024l-1.578,6.271a1.923,1.923,0,0,0,1.864,2.392H294.5v11.9a3.127,3.127,0,0,0,5.281,2.27,3.127,3.127,0,0,0,5.281-2.27v-11.9h1.888a1.922,1.922,0,0,0,1.864-2.392l-1.579-6.273a3.078,3.078,0,0,0,.382.025ZM296.949,4.792a2.836,2.836,0,0,1,5.673,0V5.77a2.836,2.836,0,0,1-5.673,0Zm.685,43.327a1.175,1.175,0,0,1-1.174-1.174v-11.9h2.347v11.9A1.175,1.175,0,0,1,297.634,48.12Zm5.477-1.174a1.174,1.174,0,0,1-2.347,0v-11.9h2.347Zm3.432-23.338-2.388-9.489a.978.978,0,0,0-1.9.477l4.655,18.494H292.659L297.314,14.6a.978.978,0,0,0-1.9-.477l-2.388,9.487h0a1.114,1.114,0,0,1-1.081.844h0a1.118,1.118,0,0,1-1.083-1.389l2.526-10.036a3.256,3.256,0,0,1,3.161-2.464h6.468a3.256,3.256,0,0,1,3.161,2.464l2.526,10.036a1.118,1.118,0,0,1-1.083,1.389h0A1.114,1.114,0,0,1,306.543,23.609Z" transform="translate(-288.874 0)"/>
      <g id="Group_5776" data-name="Group 5776" transform="translate(28.253)">
        <path id="XMLID_531_" d="M188.019,194.939a.977.977,0,1,0,.691.286A.985.985,0,0,0,188.019,194.939Z" transform="translate(-168.748 -175.873)"/>
        <path id="XMLID_557_" d="M14.708,8.607h-.725a4.766,4.766,0,0,0,.933-2.836V4.792a4.792,4.792,0,0,0-9.585,0V5.77a4.766,4.766,0,0,0,.933,2.836H5.543A5.549,5.549,0,0,0,0,14.149v12.5a3.079,3.079,0,0,0,4.45,2.759v17.34A3.324,3.324,0,0,0,10.124,49.1,3.324,3.324,0,0,0,15.8,46.751V29.408a3.079,3.079,0,0,0,4.454-2.757V24.445a.978.978,0,0,0-1.956,0v2.207a1.125,1.125,0,0,1-2.25,0V15.616a.978.978,0,0,0-1.956,0v10.6H6.163v-10.6a.978.978,0,0,0-1.956,0V26.652a1.125,1.125,0,0,1-2.25,0v-12.5a3.59,3.59,0,0,1,3.586-3.586h9.165a3.59,3.59,0,0,1,3.586,3.586v1.493a.978.978,0,1,0,1.956,0V14.149a5.549,5.549,0,0,0-5.542-5.542ZM13.84,46.751a1.369,1.369,0,0,1-2.739,0V28.168H13.84ZM6.407,28.168H9.146V46.751a1.369,1.369,0,0,1-2.739,0Zm.88-22.4V4.792a2.836,2.836,0,0,1,5.673,0V5.77a2.836,2.836,0,0,1-5.673,0Z" transform="translate(-0.001)"/>
      </g>
      <path id="XMLID_560_" d="M235.718,276.75h-2.739a.978.978,0,1,0,0,1.956h2.739a.978.978,0,1,0,0-1.956Z" transform="translate(-209.31 -249.683)"/>
      <path id="XMLID_561_" d="M235.718,320.75h-2.739a.978.978,0,1,0,0,1.956h2.739a.978.978,0,0,0,0-1.956Z" transform="translate(-209.31 -289.379)"/>
    </g>
  </g>
</svg>
