<svg id="_598430" data-name="598430" xmlns="http://www.w3.org/2000/svg" width="16.526" height="16.526" viewBox="0 0 16.526 16.526">
  <g id="Group_5777" data-name="Group 5777">
    <path id="Path_2450" data-name="Path 2450" d="M15.7.826H13.221V0H3.305V.826H.826A.781.781,0,0,0,0,1.653V3.636A3.748,3.748,0,0,0,3.305,7.354v.083a4.97,4.97,0,0,0,3.884,4.875l-.578,1.735H4.71a.794.794,0,0,0-.744.578l-.661,1.9h9.916l-.661-1.9a.794.794,0,0,0-.744-.578h-1.9l-.578-1.735a4.97,4.97,0,0,0,3.884-4.875V7.354a3.748,3.748,0,0,0,3.305-3.718V1.653A.781.781,0,0,0,15.7.826ZM3.305,5.7A2.207,2.207,0,0,1,1.653,3.636V2.479H3.305ZM9.916,8.263,8.263,7.354l-1.653.909.413-1.653L5.784,4.958H7.519l.744-1.653.744,1.653h1.735L9.5,6.611Zm4.958-4.627A2.132,2.132,0,0,1,13.221,5.7V2.479h1.653Z" fill="#34c768"/>
  </g>
</svg>
